#N canvas 822 396 1048 475 12;
#X obj 33 19 r chan;
#X obj 33 88 sel 1 2 3 4 5 6 7 8, f 45;
#X obj 17 207 *~;
#X obj 52 206 *~;
#X obj 369 152 aoo_receive~ -m 8 9090 1;
#X obj 369 176 snake~ out 8;
#X obj 533 181 route ping;
#X obj 533 205 bng 19 250 50 0 empty empty empty 0 -10 0 12 #fcfcfc #000000 #000000;
#X msg 369 120 channels 8;
#X obj 72 118 bng 19 250 50 0 empty empty empty 0 -10 0 12 #fcfcfc #000000 #000000;
#X obj 72 142 tgl 19 0 empty empty empty 0 -10 0 12 #fcfcfc #000000 #000000 0 1;
#X obj 33 118 bng 19 250 50 0 empty empty empty 0 -10 0 12 #fcfcfc #000000 #000000;
#X obj 33 142 tgl 19 0 empty empty empty 0 -10 0 12 #fcfcfc #000000 #000000 0 1;
#X obj 349 220 t 1;
#X obj 349 244 sig~;
#X obj 349 268 *~;
#X text 342 289 perchè non funziona?????;
#X floatatom 48 55 5 0 0 0 - - - 0;
#X obj 88 206 *~;
#X obj 123 205 *~;
#X obj 163 206 *~;
#X obj 198 205 *~;
#X obj 234 205 *~;
#X obj 269 204 *~;
#X obj 111 118 bng 19 250 50 0 empty empty empty 0 -10 0 12 #fcfcfc #000000 #000000;
#X obj 111 142 tgl 19 0 empty empty empty 0 -10 0 12 #fcfcfc #000000 #000000 0 1;
#X obj 148 119 bng 19 250 50 0 empty empty empty 0 -10 0 12 #fcfcfc #000000 #000000;
#X obj 148 143 tgl 19 0 empty empty empty 0 -10 0 12 #fcfcfc #000000 #000000 0 1;
#X obj 227 119 bng 19 250 50 0 empty empty empty 0 -10 0 12 #fcfcfc #000000 #000000;
#X obj 227 143 tgl 19 0 empty empty empty 0 -10 0 12 #fcfcfc #000000 #000000 0 1;
#X obj 188 119 bng 19 250 50 0 empty empty empty 0 -10 0 12 #fcfcfc #000000 #000000;
#X obj 188 143 tgl 19 0 empty empty empty 0 -10 0 12 #fcfcfc #000000 #000000 0 1;
#X obj 266 119 bng 19 250 50 0 empty empty empty 0 -10 0 12 #fcfcfc #000000 #000000;
#X obj 266 143 tgl 19 0 empty empty empty 0 -10 0 12 #fcfcfc #000000 #000000 0 1;
#X obj 303 120 bng 19 250 50 0 empty empty empty 0 -10 0 12 #fcfcfc #000000 #000000;
#X obj 303 144 tgl 19 0 empty empty empty 0 -10 0 12 #fcfcfc #000000 #000000 0 1;
#X obj 369 73 loadbang;
#X obj 369 95 t b b, f 36;
#X msg 617 130 \; pd dsp 1;
#X obj 147 313 dac~;
#X connect 0 0 1 0;
#X connect 0 0 17 0;
#X connect 1 0 11 0;
#X connect 1 1 9 0;
#X connect 1 2 24 0;
#X connect 1 3 26 0;
#X connect 1 4 30 0;
#X connect 1 5 28 0;
#X connect 1 6 32 0;
#X connect 1 7 34 0;
#X connect 2 0 39 0;
#X connect 2 0 39 1;
#X connect 3 0 39 0;
#X connect 3 0 39 1;
#X connect 4 0 5 0;
#X connect 4 1 6 0;
#X connect 5 0 2 0;
#X connect 5 1 3 0;
#X connect 5 2 18 0;
#X connect 5 3 19 0;
#X connect 5 4 20 0;
#X connect 5 5 21 0;
#X connect 5 6 22 0;
#X connect 5 7 23 0;
#X connect 6 0 7 0;
#X connect 8 0 4 0;
#X connect 9 0 10 0;
#X connect 10 0 3 1;
#X connect 11 0 12 0;
#X connect 12 0 2 1;
#X connect 13 0 14 0;
#X connect 14 0 15 0;
#X connect 18 0 39 0;
#X connect 18 0 39 1;
#X connect 19 0 39 0;
#X connect 19 0 39 1;
#X connect 20 0 39 0;
#X connect 20 0 39 1;
#X connect 21 0 39 0;
#X connect 21 0 39 1;
#X connect 22 0 39 0;
#X connect 22 0 39 1;
#X connect 23 0 39 0;
#X connect 23 0 39 1;
#X connect 24 0 25 0;
#X connect 25 0 18 1;
#X connect 26 0 27 0;
#X connect 27 0 19 1;
#X connect 28 0 29 0;
#X connect 29 0 21 1;
#X connect 30 0 31 0;
#X connect 31 0 20 1;
#X connect 32 0 33 0;
#X connect 33 0 22 1;
#X connect 34 0 35 0;
#X connect 35 0 23 1;
#X connect 36 0 37 0;
#X connect 37 0 8 0;
#X connect 37 1 38 0;
